<svg width="171" height="34" viewBox="0 0 171 34" fill="none" xmlns="http://www.w3.org/2000/svg">
<path d="M23.6113 0.613348C28.8058 0.613348 33.0206 4.83058 33.0206 10.0226V33.3865H23.6113V0.61084V0.613348Z" fill="#5932EE"/>
<path d="M0.136719 10.0251L0.136719 0.61592H13.4525C18.647 0.61592 22.8617 4.83316 22.8617 10.0251L0.136719 10.0251Z" fill="#5932EE"/>
<path d="M4.11623 10.7715C-1.04068 15.9509 -1.03566 24.3328 4.13628 29.5047C9.30822 34.6767 17.6876 34.6842 22.8695 29.5248L4.11623 10.7715Z" fill="#5932EE"/>
<path d="M162.549 25.7374C160.767 25.7374 159.207 25.3342 157.87 24.5278C156.533 23.7215 155.493 22.6286 154.751 21.2493C154.008 19.87 153.637 18.3422 153.637 16.6658C153.637 14.9258 154.008 13.3874 154.751 12.0505C155.515 10.6924 156.544 9.62081 157.838 8.83567C159.154 8.05053 160.618 7.65796 162.231 7.65796C163.589 7.65796 164.777 7.88077 165.796 8.32639C166.836 8.77201 167.716 9.38739 168.438 10.1725C169.159 10.9577 169.711 11.8595 170.093 12.8781C170.475 13.8754 170.666 14.9576 170.666 16.1247C170.666 16.4218 170.645 16.7295 170.602 17.0478C170.581 17.3661 170.528 17.642 170.443 17.8754H157.074V14.6924H168.088L166.114 16.1884C166.305 15.2123 166.252 14.3422 165.955 13.5783C165.679 12.8144 165.212 12.2096 164.554 11.764C163.918 11.3184 163.143 11.0956 162.231 11.0956C161.361 11.0956 160.586 11.3184 159.907 11.764C159.228 12.1884 158.708 12.825 158.348 13.6738C158.008 14.5014 157.881 15.5093 157.966 16.6977C157.881 17.7587 158.019 18.7029 158.379 19.5305C158.761 20.3369 159.313 20.9629 160.035 21.4085C160.777 21.8541 161.626 22.0769 162.581 22.0769C163.536 22.0769 164.342 21.8753 165 21.4722C165.679 21.069 166.21 20.5279 166.592 19.8488L169.965 21.504C169.626 22.3316 169.095 23.0637 168.374 23.7003C167.653 24.3369 166.793 24.8355 165.796 25.1963C164.82 25.557 163.737 25.7374 162.549 25.7374Z" fill="#1A1239"/>
<path d="M143.249 32.358C141.954 32.358 140.756 32.1458 139.652 31.7214C138.549 31.297 137.594 30.7028 136.787 29.9389C136.002 29.1962 135.429 28.3156 135.069 27.297L138.952 25.8329C139.206 26.6392 139.705 27.2864 140.448 27.7745C141.212 28.2838 142.145 28.5384 143.249 28.5384C144.098 28.5384 144.84 28.3793 145.477 28.061C146.135 27.7427 146.644 27.2758 147.005 26.6604C147.366 26.0663 147.546 25.3448 147.546 24.496V20.5491L148.342 21.504C147.748 22.5438 146.952 23.3289 145.954 23.8594C144.957 24.3899 143.822 24.6552 142.549 24.6552C140.936 24.6552 139.493 24.2838 138.22 23.5411C136.947 22.7984 135.949 21.7798 135.228 20.4854C134.506 19.191 134.146 17.7374 134.146 16.1247C134.146 14.4908 134.506 13.0372 135.228 11.764C135.949 10.4908 136.936 9.49349 138.188 8.77201C139.44 8.02931 140.862 7.65796 142.453 7.65796C143.748 7.65796 144.883 7.93382 145.859 8.48554C146.856 9.01604 147.684 9.79057 148.342 10.8091L147.769 11.8595V8.03992H151.716V24.496C151.716 26.0026 151.344 27.3501 150.602 28.5384C149.88 29.7267 148.883 30.6604 147.61 31.3394C146.358 32.0185 144.904 32.358 143.249 32.358ZM143.058 20.8037C143.949 20.8037 144.724 20.6127 145.381 20.2308C146.061 19.8276 146.591 19.2759 146.973 18.5756C147.355 17.8754 147.546 17.069 147.546 16.1566C147.546 15.2653 147.344 14.4696 146.941 13.7693C146.559 13.0478 146.029 12.4855 145.35 12.0823C144.692 11.6791 143.928 11.4776 143.058 11.4776C142.188 11.4776 141.403 11.6791 140.702 12.0823C140.002 12.4855 139.451 13.0478 139.047 13.7693C138.665 14.4696 138.474 15.2653 138.474 16.1566C138.474 17.0478 138.665 17.8435 139.047 18.5438C139.451 19.2441 139.992 19.7958 140.671 20.199C141.371 20.6021 142.167 20.8037 143.058 20.8037Z" fill="#1A1239"/>
<path d="M122.907 25.7374C121.698 25.7374 120.647 25.5358 119.756 25.1326C118.865 24.7294 118.175 24.1565 117.687 23.4138C117.199 22.6499 116.955 21.7692 116.955 20.7719C116.955 19.817 117.167 18.9682 117.592 18.2255C118.016 17.4616 118.674 16.825 119.565 16.3157C120.456 15.8064 121.581 15.4457 122.939 15.2335L128.605 14.3104V17.4934L123.735 18.321C122.907 18.4695 122.292 18.7348 121.889 19.1167C121.486 19.4987 121.284 19.9974 121.284 20.6127C121.284 21.2069 121.507 21.6844 121.952 22.0451C122.419 22.3846 122.992 22.5544 123.671 22.5544C124.541 22.5544 125.305 22.374 125.963 22.0133C126.642 21.6313 127.162 21.1114 127.523 20.4536C127.905 19.7958 128.096 19.0743 128.096 18.2892V13.833C128.096 13.0903 127.798 12.4749 127.204 11.9868C126.631 11.4776 125.867 11.2229 124.913 11.2229C124.021 11.2229 123.226 11.4669 122.525 11.955C121.846 12.4218 121.348 13.0478 121.029 13.833L117.624 12.1778C117.963 11.2654 118.494 10.4802 119.215 9.8224C119.958 9.14336 120.828 8.61286 121.825 8.2309C122.822 7.84894 123.905 7.65796 125.072 7.65796C126.493 7.65796 127.745 7.92321 128.828 8.45371C129.91 8.96299 130.748 9.68447 131.342 10.6181C131.958 11.5306 132.265 12.6022 132.265 13.833V25.3554H128.318V22.3952L129.21 22.3316C128.764 23.0743 128.233 23.7003 127.618 24.2095C127.003 24.6976 126.302 25.0795 125.517 25.3554C124.732 25.61 123.862 25.7374 122.907 25.7374Z" fill="#1A1239"/>
<path d="M113.736 25.5462C111.784 25.5462 110.266 25.0157 109.184 23.9547C108.123 22.8724 107.593 21.3552 107.593 19.403V11.7638H104.601V8.03969H104.919C105.768 8.03969 106.426 7.81688 106.892 7.37126C107.359 6.92564 107.593 6.27843 107.593 5.42963V4.09277H111.762V8.03969H115.741V11.7638H111.762V19.1802C111.762 19.7531 111.858 20.2412 112.049 20.6443C112.261 21.0475 112.579 21.3552 113.004 21.5674C113.449 21.7796 114.012 21.8857 114.691 21.8857C114.839 21.8857 115.009 21.8751 115.2 21.8539C115.412 21.8327 115.614 21.8114 115.805 21.7902V25.3552C115.508 25.3976 115.168 25.4401 114.786 25.4825C114.404 25.5249 114.054 25.5462 113.736 25.5462Z" fill="#1A1239"/>
<path d="M86.04 31.7214V8.03992H89.9551V11.4776L89.5732 10.6181C90.1673 9.68447 90.9737 8.96299 91.9922 8.45371C93.0108 7.92321 94.1885 7.65796 95.5254 7.65796C97.1593 7.65796 98.6341 8.06114 99.9497 8.8675C101.265 9.67386 102.305 10.7561 103.069 12.1142C103.854 13.4722 104.247 15.0001 104.247 16.6977C104.247 18.374 103.865 19.9019 103.101 21.2812C102.337 22.6605 101.297 23.7533 99.9816 24.5597C98.6659 25.3448 97.1699 25.7374 95.4935 25.7374C94.2416 25.7374 93.0851 25.4933 92.0241 25.0053C90.9843 24.496 90.1567 23.7745 89.5413 22.8408L90.2098 22.0133V31.7214H86.04ZM95.0161 21.9178C95.971 21.9178 96.8198 21.695 97.5625 21.2493C98.3052 20.8037 98.8781 20.1883 99.2813 19.4032C99.7057 18.6181 99.9179 17.7162 99.9179 16.6977C99.9179 15.6791 99.7057 14.7879 99.2813 14.0239C98.8781 13.2388 98.3052 12.6234 97.5625 12.1778C96.8198 11.711 95.971 11.4776 95.0161 11.4776C94.1036 11.4776 93.276 11.7004 92.5333 12.146C91.8119 12.5916 91.2389 13.2176 90.8145 14.0239C90.4113 14.8091 90.2098 15.7003 90.2098 16.6977C90.2098 17.7162 90.4113 18.6181 90.8145 19.4032C91.2389 20.1883 91.8119 20.8037 92.5333 21.2493C93.276 21.695 94.1036 21.9178 95.0161 21.9178Z" fill="#1A1239"/>
<path d="M65.9277 31.7214V8.03992H69.8428V11.4776L69.4609 10.6181C70.055 9.68447 70.8614 8.96299 71.8799 8.45371C72.8985 7.92321 74.0762 7.65796 75.4131 7.65796C77.047 7.65796 78.5218 8.06114 79.8374 8.8675C81.1531 9.67386 82.1928 10.7561 82.9568 12.1142C83.7419 13.4722 84.1345 15.0001 84.1345 16.6977C84.1345 18.374 83.7525 19.9019 82.9886 21.2812C82.2247 22.6605 81.1849 23.7533 79.8692 24.5597C78.5536 25.3448 77.0576 25.7374 75.3812 25.7374C74.1293 25.7374 72.9728 25.4933 71.9118 25.0053C70.872 24.496 70.0444 23.7745 69.429 22.8408L70.0975 22.0133V31.7214H65.9277ZM74.9038 21.9178C75.8587 21.9178 76.7075 21.695 77.4502 21.2493C78.1929 20.8037 78.7658 20.1883 79.169 19.4032C79.5934 18.6181 79.8056 17.7162 79.8056 16.6977C79.8056 15.6791 79.5934 14.7879 79.169 14.0239C78.7658 13.2388 78.1929 12.6234 77.4502 12.1778C76.7075 11.711 75.8587 11.4776 74.9038 11.4776C73.9913 11.4776 73.1637 11.7004 72.421 12.146C71.6996 12.5916 71.1266 13.2176 70.7022 14.0239C70.299 14.8091 70.0975 15.7003 70.0975 16.6977C70.0975 17.7162 70.299 18.6181 70.7022 19.4032C71.1266 20.1883 71.6996 20.8037 72.421 21.2493C73.1637 21.695 73.9913 21.9178 74.9038 21.9178Z" fill="#1A1239"/>
<path d="M42.9492 25.3554L51.1295 1.64209H56.7316L64.9119 25.3554H60.201L58.5141 20.2626H49.347L47.6282 25.3554H42.9492ZM50.5884 16.443H57.2727L53.3258 4.63411H54.5353L50.5884 16.443Z" fill="#1A1239"/>
</svg>
