<svg width="170" height="30" viewBox="0 0 170 30" fill="none" xmlns="http://www.w3.org/2000/svg">
<path d="M0 22.3472V0.876038H9.07795C12.8188 0.876038 15.8574 3.29982 15.8574 7.00998C15.8763 7.8061 15.718 8.59646 15.3941 9.32396C15.0702 10.0515 14.5888 10.698 13.9846 11.2167C14.8093 11.7236 15.4868 12.4376 15.9498 13.2876C16.4128 14.1377 16.6451 15.0942 16.6236 16.0619C16.6236 19.8667 13.5259 22.3519 9.6904 22.3519L0 22.3472ZM9.38536 9.43376C10.4897 9.43376 11.2558 8.48789 11.2558 7.37887C11.2558 6.26984 10.5204 5.17027 9.38536 5.17027H4.29423V9.42666L9.38536 9.43376ZM9.9978 18.053C11.1328 18.053 12.022 17.0101 12.022 15.6883C12.022 14.4918 11.2251 13.4797 9.9978 13.4797H4.29423V18.0506L9.9978 18.053Z" fill="#060761"/>
<path d="M19.0758 0.875793H23.37V4.73966H19.0758V0.875793ZM19.0758 7.04047H23.37V22.3753H19.0758V7.04047Z" fill="#060761"/>
<path d="M26.4677 0.845093H30.7619V22.3754H26.4677V0.845093Z" fill="#060761"/>
<path d="M33.8596 0.845093H38.1538V22.3754H33.8596V0.845093Z" fill="#060761"/>
<path d="M41.2587 0.875793H45.5529V4.73966H41.2587V0.875793ZM41.2587 7.04047H45.5529V22.3753H41.2587V7.04047Z" fill="#060761"/>
<path d="M48.0287 14.6477C48.0287 10.1075 51.4645 6.70239 56.0354 6.70239C60.6063 6.70239 63.9783 10.1075 63.9783 14.6477C63.9783 19.1878 60.5756 22.6213 56.0354 22.6213C51.4953 22.6213 48.0287 19.1878 48.0287 14.6477ZM59.9915 14.6784C59.985 13.89 59.7448 13.1213 59.3014 12.4694C58.858 11.8175 58.2312 11.3117 57.5004 11.0159C56.7696 10.7202 55.9674 10.6478 55.1955 10.8078C54.4235 10.9679 53.7163 11.3532 53.1633 11.9152C52.6102 12.4771 52.2363 13.1904 52.0886 13.9648C51.9409 14.7393 52.0262 15.5401 52.3336 16.2662C52.641 16.9922 53.1567 17.6107 53.8157 18.0436C54.4746 18.4766 55.2471 18.7044 56.0354 18.6983C56.56 18.6971 57.0791 18.5919 57.5627 18.3886C58.0463 18.1854 58.4848 17.8882 58.8528 17.5143C59.2207 17.1404 59.5108 16.6973 59.7063 16.2105C59.9018 15.7237 59.9987 15.2029 59.9915 14.6784Z" fill="#060761"/>
<path d="M80.5405 13.1082V22.3422H76.2557V13.7277C76.2557 11.304 75.4589 10.3841 73.5884 10.3841C71.6565 10.3841 70.7366 11.4884 70.7366 13.7277V22.347H66.4329V7.00974H70.7272V8.42854C71.524 7.32424 73.0918 6.70943 75.0521 6.70943C79.0082 6.70233 80.5405 9.46426 80.5405 13.1082Z" fill="#060761"/>
<path d="M84.4352 0.875793H87.1971V19.7293H97.4408V22.3304H84.4352V0.875793Z" fill="#060761"/>
<path d="M98.4221 14.6477C98.4221 10.1075 101.858 6.70239 106.427 6.70239C110.995 6.70239 114.372 10.1075 114.372 14.6477C114.372 19.1878 110.967 22.6213 106.427 22.6213C101.886 22.6213 98.4221 19.1878 98.4221 14.6477ZM111.887 14.6784C111.887 11.5192 109.496 9.09543 106.396 9.09543C103.296 9.09543 100.877 11.5192 100.877 14.6784C100.877 17.8376 103.267 20.2306 106.396 20.2306C109.524 20.2306 111.887 17.8069 111.887 14.6784Z" fill="#060761"/>
<path d="M132.743 21.4862C132.712 25.9341 129.248 29.1548 124.493 29.1548C121.364 29.1548 118.817 28.0505 117.131 25.9341L118.912 24.0424C120.291 25.7284 122.161 26.5868 124.523 26.5868C127.805 26.5868 130.075 24.5319 130.137 21.4957V19.533C128.94 21.5879 127.063 22.6614 124.249 22.6614C119.801 22.6614 116.365 19.1665 116.365 14.657C116.365 10.0861 119.74 6.61719 124.249 6.61719C126.732 6.61719 129.033 7.84445 130.137 9.748V7.00972H132.738L132.743 21.4862ZM130.106 14.7091C130.106 11.4884 127.898 9.03388 124.646 9.03388C121.395 9.03388 118.971 11.4577 118.971 14.7091C118.971 17.899 121.423 20.2589 124.646 20.2589C127.869 20.2589 130.106 17.899 130.106 14.7091Z" fill="#060761"/>
<path d="M135.074 0.875793H137.676V3.26883H135.074V0.875793ZM135.074 7.04047H137.676V22.3753H135.074V7.04047Z" fill="#060761"/>
<path d="M155.288 17.9912C154.03 20.8738 151.239 22.6213 148.049 22.6213C143.478 22.6213 140.043 19.1878 140.043 14.6476C140.043 10.1074 143.478 6.70233 148.049 6.70233C149.411 6.68158 150.755 7.01582 151.949 7.67216C153.143 8.32851 154.145 9.28434 154.857 10.4456L152.741 11.7651C151.795 10.1382 150.043 9.12611 147.957 9.12611C144.859 9.12611 142.497 11.5499 142.497 14.6783C142.497 17.8068 144.862 20.1691 148.019 20.1998C149.104 20.2169 150.17 19.9073 151.077 19.311C151.985 18.7148 152.692 17.8595 153.107 16.8562L155.288 17.9912Z" fill="#060761"/>
<path d="M157.432 19.2777L159.213 17.9913C159.948 19.5236 161.911 20.5664 163.966 20.5664C166.236 20.5664 167.371 19.7695 167.402 18.1734C167.432 16.5772 165.274 16.0286 163.618 15.506C161.49 14.8321 157.882 14.1558 158.097 10.753C158.25 8.17556 160.367 6.67163 163.8 6.67163C166.624 6.67163 168.863 7.83741 169.66 9.7457L167.882 10.8169C167.205 9.53051 165.612 8.76199 163.739 8.76199C161.563 8.76199 160.641 9.4714 160.641 10.9399C160.641 12.4083 162.36 12.8434 163.739 13.2099C166.929 14.0683 170.088 15.2341 169.998 18.1757C169.908 21.1174 167.667 22.7466 163.893 22.7466C160.837 22.7443 158.355 21.3846 157.432 19.2777Z" fill="#060761"/>
<path d="M82.6072 0.845093H75.272L82.6072 8.18028V0.845093Z" fill="#41FFA7"/>
</svg>
