<svg width="61" height="61" viewBox="0 0 61 61" fill="none" xmlns="http://www.w3.org/2000/svg">
<rect opacity="0.7" x="1" y="-1" width="58" height="58" rx="29" transform="matrix(1 0 0 -1 0.455078 58.9141)" stroke="#5932EE" stroke-width="2"/>
<path d="M41.2589 25.8584C40.653 26.5113 38.9782 28.2352 36.5436 30.113C33.991 32.0826 31.1 33.67 30.9777 33.7366C30.815 33.8262 30.6349 33.8709 30.4548 33.8709C30.2746 33.8709 30.0945 33.8262 29.9307 33.7366C29.8095 33.67 26.9185 32.0826 24.3649 30.113C21.9302 28.2352 20.2555 26.5113 19.6484 25.8573L19.0054 25.1695C18.7117 26.6838 18.4453 28.6752 18.4453 30.9133C18.4453 35.7804 19.7074 39.4859 19.762 39.6409C19.8843 39.9946 20.1801 40.261 20.5448 40.3462C20.7391 40.392 25.3704 41.4631 30.4559 41.4631C35.7171 41.4631 40.1879 40.3899 40.3757 40.344C40.7359 40.2567 41.0264 39.9925 41.1486 39.642C41.2021 39.4881 42.4653 35.8099 42.4653 30.9122C42.4653 28.6555 42.2011 26.6696 41.9096 25.1641L41.2611 25.8584H41.2589Z" fill="white"/>
<path d="M21.2469 24.3701C21.6934 24.8504 23.3289 26.5558 25.6991 28.3834C27.4961 29.77 29.5203 30.984 30.4548 31.5233C31.3894 30.9829 33.4179 29.7678 35.2095 28.3845C37.5808 26.5569 39.2152 24.8515 39.6595 24.3723L41.2895 22.6287C41.2087 22.3634 41.1552 22.2084 41.1454 22.18C41.0231 21.8317 40.7327 21.5697 40.3746 21.4823C40.1868 21.4365 35.727 20.3633 30.4537 20.3633C25.2744 20.3633 20.7294 21.4354 20.5383 21.4813C20.1747 21.5686 19.8821 21.8339 19.761 22.1865C19.7511 22.216 19.6987 22.3689 19.6201 22.6309L21.2469 24.3723V24.3701Z" fill="white"/>
</svg>
