<svg width="134" height="27" viewBox="0 0 134 27" fill="none" xmlns="http://www.w3.org/2000/svg">
<g style="mix-blend-mode:luminosity">
<path d="M0.250421 17.9152L1.93862 17.6461V2.0608L0.0546875 1.81613L0.152554 0.12793H11.9455L11.6519 4.85001L9.30311 4.77661L9.15631 1.81613H5.51077V8.83808H7.1011L7.4681 7.22328L9.10737 7.27221V12.1166H7.4681L7.07664 10.4529H5.4863V17.8908H9.15631L9.49884 14.6612L11.97 14.7346L12.1657 19.6524H0.177021L0.250421 17.9152Z" fill="#676767"/>
<path d="M13.2679 19.6769L13.3413 18.2333L14.6625 17.9642V8.12859L13.1211 7.98179V6.51379L16.9868 5.95105L17.2804 6.78292V7.34565C18.2102 6.36699 19.3356 5.77979 20.7792 5.77979C22.8833 5.77979 24.4492 7.05205 24.4492 9.57213V17.9397L25.8438 18.2089L25.7704 19.6524H21.1706V10.3061C21.1706 8.96046 20.6813 8.20199 19.458 8.20199C19.042 8.20199 18.7484 8.27539 18.4304 8.39772C18.2346 8.56899 18.0389 8.81366 17.8676 9.03386V17.9887L19.2622 18.2578L19.1644 19.7013H13.2679V19.6769Z" fill="#676767"/>
<path d="M87.181 19.6769L87.23 18.2333L88.5512 17.9642V8.12859L87.0098 7.98179V6.51379L90.8755 5.95105L91.1691 6.78292V7.34565C92.0988 6.36699 93.2243 5.77979 94.6679 5.77979C96.772 5.77979 98.3379 7.05205 98.3379 9.57213V17.9397L99.7325 18.2089L99.6591 19.6524H95.0838V10.3061C95.0838 8.96046 94.5944 8.20199 93.3711 8.20199C92.9552 8.20199 92.6616 8.27539 92.3435 8.39772C92.1478 8.56899 91.952 8.81366 91.7808 9.03386V17.9887L93.1754 18.2578L93.0775 19.7013H87.181V19.6769Z" fill="#676767"/>
<path d="M33.1332 19.408C32.595 19.6282 31.6408 19.8729 30.393 19.8729C28.7537 19.8729 27.2368 19.1389 27.2368 16.7412V8.12887L25.6709 7.8842L25.7443 6.17153L27.5059 6.09813L28.2644 3.48019L30.5153 3.38232V6.196H32.9375L32.7662 7.90867L30.5398 8.15333V16.7656C30.5398 17.4752 30.9312 17.94 31.6652 17.94H32.9864L33.1332 19.408Z" fill="#676767"/>
<path d="M124.712 19.6766L124.761 18.2575L126.009 17.9639V8.12827L124.541 7.98147V6.51347L128.554 5.95074L128.823 6.90494V7.22301C129.875 6.44007 131.294 5.92627 133.007 5.92627L133.594 6.44007L133.178 10.159L130.976 10.0856L130.756 8.10381C130.242 8.17721 129.752 8.32401 129.337 8.61761V17.9884L130.731 18.282L130.633 19.701H124.712V19.6766Z" fill="#676767"/>
<path d="M67.0921 19.6766L67.1655 18.2575L68.4133 17.9639V8.12827L66.9453 7.98147V6.51347L70.9579 5.95074L71.227 6.90494V7.22301C72.2791 6.44007 73.6981 5.92627 75.4108 5.92627L75.998 6.44007L75.5331 10.159L73.3311 10.0856L73.1109 8.10381C72.5971 8.17721 72.1078 8.32401 71.6919 8.61761V17.9884L73.0865 18.282L72.9886 19.701H67.0921V19.6766Z" fill="#676767"/>
<path d="M34.1116 19.6766L34.185 18.2575L35.4328 17.9639V8.12827L33.9648 7.98147V6.51347L37.9774 5.95074L38.2465 6.90494V7.22301C39.2986 6.44007 40.7177 5.92627 42.4059 5.92627L42.9931 6.44007L42.5771 10.159L40.3751 10.0856L40.1549 8.10381C39.6411 8.17721 39.1518 8.32401 38.7359 8.61761V17.9884L40.1305 18.282L40.0326 19.701H34.1116V19.6766Z" fill="#676767"/>
<path d="M46.7867 13.6821C46.7867 16.0309 47.8143 17.8414 49.8451 17.8414C50.8971 17.8414 51.729 17.6212 52.7077 17.1564L53.2704 18.4531C52.2673 19.2605 50.7993 19.8722 48.9643 19.8722C45.3921 19.8722 43.3369 16.7894 43.3369 12.8258C43.3369 9.44936 44.8294 5.75488 48.9153 5.75488C52.4875 5.75488 53.8331 9.05789 53.8331 12.7279L53.4906 13.6087L46.7867 13.6821ZM46.7378 12.1162L50.8482 11.9205C50.7748 10.2812 50.4323 7.68775 48.8175 7.68775C48.426 7.68775 48.1569 7.76115 47.6675 8.00582C47.0069 9.13129 46.7378 11.162 46.7378 12.1162Z" fill="#676767"/>
<path d="M103.647 13.6821C103.647 16.0309 104.675 17.8414 106.705 17.8414C107.757 17.8414 108.589 17.6212 109.568 17.1564L110.131 18.4531C109.128 19.2605 107.66 19.8722 105.825 19.8722C102.252 19.8722 100.197 16.7894 100.197 12.8258C100.197 9.44936 101.69 5.75488 105.776 5.75488C109.348 5.75488 110.693 9.05789 110.693 12.7279L110.351 13.6087L103.647 13.6821ZM103.598 12.1162L107.709 11.9205C107.635 10.2812 107.293 7.68775 105.678 7.68775C105.286 7.68775 105.017 7.76115 104.528 8.00582C103.867 9.13129 103.598 11.162 103.598 12.1162Z" fill="#676767"/>
<path d="M79.7682 13.6821C79.7682 16.0309 80.7958 17.8414 82.8265 17.8414C83.8786 17.8414 84.7104 17.6212 85.6891 17.1564L86.2518 18.4531C85.2487 19.2605 83.7807 19.8722 81.9457 19.8722C78.3736 19.8722 76.3184 16.7894 76.3184 12.8258C76.3184 9.44936 77.8108 5.75488 81.8968 5.75488C85.4689 5.75488 86.8146 9.05789 86.8146 12.7279L86.472 13.6087L79.7682 13.6821ZM79.7192 12.1162L83.8296 11.9205C83.7562 10.2812 83.4137 7.68775 81.7989 7.68775C81.4074 7.68775 81.1383 7.76115 80.649 8.00582C79.9884 9.13129 79.6948 11.162 79.7192 12.1162Z" fill="#676767"/>
<path d="M119.94 19.6758L119.598 18.5014C118.693 19.3577 117.812 19.8715 116.442 19.8715C114.337 19.8715 112.454 18.8195 112.454 15.9079V7.78497L110.912 7.63817V6.34144L115.365 5.82764L115.708 7.00204V15.5165C115.708 17.0089 116.319 17.7919 117.518 17.7919C117.861 17.7919 118.301 17.7429 118.693 17.5961C118.913 17.3759 119.133 17.1068 119.304 16.8377V7.78497L117.714 7.63817V6.34144L122.216 5.82764L122.558 7.00204V17.9631L123.953 18.2323L123.782 19.6758H119.94Z" fill="#676767"/>
<path d="M60.5121 17.9153C59.8025 17.9153 59.2398 17.7929 58.7994 17.5483V8.91153C58.9951 8.61792 59.2153 8.34879 59.4355 8.10412C59.8515 7.95732 60.2185 7.90839 60.6589 7.90839C62.4939 7.90839 62.8119 9.76786 62.8119 13.0953C62.8119 16.3005 62.3226 17.1813 62.2003 17.5483C61.6865 17.7929 61.1482 17.9153 60.5121 17.9153ZM65.9926 12.5081C65.9926 8.37326 64.7693 5.77979 61.7109 5.77979C59.6802 5.77979 58.726 6.95419 58.3345 7.44352V6.97865L57.992 5.80425L54.0039 6.36699V7.78606L55.5453 7.98179V24.6681L54.2241 24.9372L54.1507 26.3318H60.0472L60.1451 24.9372L58.7504 24.6681V19.3833C59.3132 19.7013 60.0961 19.8971 60.9525 19.8971C65.9437 19.8971 65.9926 14.8325 65.9926 12.5081Z" fill="#676767"/>
</g>
</svg>
