<svg width="79" height="28" viewBox="0 0 79 28" fill="none" xmlns="http://www.w3.org/2000/svg">
<g style="mix-blend-mode:luminosity">
<path d="M0.8125 7.02934H4.2197V21.3958H0.8125V27.0862H19.0428V21.3958H15.6005V7.02934H19.0428V0.882324H0.8125V7.02934Z" fill="#676767"/>
<path d="M47.1083 21.3958V13.8437C47.1083 9.0315 43.5957 7.27521 39.2401 7.27521C36.1491 7.27521 33.7956 8.11823 31.7583 10.4717C31.6178 10.6473 31.4422 10.858 31.2315 11.0337V7.06445H19.9912V12.79H22.5554V21.3958H19.9912V27.1213H34.2523V21.3958H31.5476V16.443C31.5476 14.3355 33.1283 12.79 35.2358 12.79C36.8867 12.79 38.1864 13.5978 38.1864 15.3893V21.3606H35.5519V27.0862H49.4969V21.466C49.4969 21.4309 49.4617 21.3958 49.4617 21.3606H47.1083V21.3958Z" fill="#676767"/>
<path d="M72.1885 19.7093H64.777H64.5311C64.5311 21.8169 62.9856 22.8004 61.2644 22.8004C57.9626 22.8004 57.6816 20.0254 57.6816 17.391V17.3208C57.6816 14.6863 57.9274 11.9114 61.2644 11.9114C63.8637 11.9114 64.3203 14.1594 64.3906 16.3021L72.0831 15.4591C71.2752 7.62604 63.5476 7.13428 61.6157 7.13428C61.3346 7.13428 61.1941 7.13428 61.1941 7.13428C54.8364 7.13428 48.584 10.2605 48.584 17.3559C48.584 18.8663 48.865 20.2011 49.3919 21.3602H49.427V21.4656C51.3238 25.6807 56.2414 27.5775 61.1941 27.5775C65.2336 27.5775 70.8889 26.594 72.1534 20.3767L72.1885 19.7093Z" fill="#676767"/>
<path d="M74.8234 27.1912C76.6081 27.1912 78.0549 25.7443 78.0549 23.9596C78.0549 22.1749 76.6081 20.728 74.8234 20.728C73.0386 20.728 71.5918 22.1749 71.5918 23.9596C71.5918 25.7443 73.0386 27.1912 74.8234 27.1912Z" fill="#676767"/>
</g>
</svg>
