<svg width="61" height="61" viewBox="0 0 61 61" fill="none" xmlns="http://www.w3.org/2000/svg">
<rect opacity="0.7" x="1" y="-1" width="58" height="58" rx="29" transform="matrix(1 0 0 -1 0.0810547 58.2539)" stroke="#5932EE" stroke-width="2"/>
<path d="M30.0829 17.4121C26.5929 17.4121 26.155 17.4274 24.7842 17.4897C23.4162 17.5523 22.4824 17.7687 21.6653 18.0863C20.8202 18.4142 20.1032 18.853 19.389 19.567C18.6742 20.2807 18.2351 20.9971 17.9058 21.8414C17.5872 22.6581 17.3704 23.5915 17.3088 24.958C17.2475 26.3277 17.2314 26.7656 17.2314 30.2529C17.2314 33.7403 17.247 34.1766 17.3091 35.5463C17.372 36.9133 17.5886 37.8464 17.9061 38.6629C18.2346 39.5074 18.6736 40.2238 19.3882 40.9376C20.1022 41.6518 20.8191 42.0916 21.6637 42.4196C22.4813 42.7372 23.4154 42.9536 24.7832 43.0162C26.1539 43.0785 26.5916 43.0938 30.0813 43.0938C33.5715 43.0938 34.0081 43.0785 35.3788 43.0162C36.7469 42.9536 37.6817 42.7372 38.4993 42.4196C39.3442 42.0916 40.0601 41.6518 40.7741 40.9376C41.4889 40.2238 41.928 39.5074 42.2573 38.6631C42.5732 37.8464 42.79 36.913 42.8543 35.5466C42.9158 34.1769 42.9319 33.7403 42.9319 30.2529C42.9319 26.7656 42.9158 26.3279 42.8543 24.9582C42.79 23.5912 42.5732 22.6581 42.2573 21.8417C41.928 20.9971 41.4889 20.2807 40.7741 19.567C40.0593 18.8527 39.3445 18.414 38.4985 18.0863C37.6793 17.7687 36.745 17.5523 35.377 17.4897C34.0062 17.4274 33.5699 17.4121 30.0789 17.4121H30.0829ZM28.9301 19.7261C29.2722 19.7256 29.654 19.7261 30.0829 19.7261C33.5139 19.7261 33.9206 19.7384 35.2755 19.8C36.5284 19.8572 37.2084 20.0664 37.6614 20.2422C38.2611 20.4749 38.6886 20.7531 39.1381 21.2026C39.5879 21.652 39.8663 22.08 40.0997 22.6792C40.2756 23.1314 40.4852 23.8108 40.5423 25.0628C40.6038 26.4165 40.6172 26.8231 40.6172 30.25C40.6172 33.6769 40.6038 34.0835 40.5423 35.4371C40.485 36.6891 40.2756 37.3686 40.0997 37.8207C39.8668 38.42 39.5879 38.8467 39.1381 39.2958C38.6883 39.7452 38.2613 40.0235 37.6614 40.2562C37.2089 40.4328 36.5284 40.6414 35.2755 40.6987C33.9209 40.7602 33.5139 40.7736 30.0829 40.7736C26.6516 40.7736 26.2449 40.7602 24.8903 40.6987C23.6374 40.6409 22.9574 40.4317 22.5041 40.2559C21.9044 40.0232 21.4761 39.745 21.0263 39.2955C20.5766 38.8461 20.2981 38.4192 20.0647 37.8197C19.8888 37.3675 19.6792 36.688 19.6222 35.4361C19.5606 34.0824 19.5483 33.6758 19.5483 30.2468C19.5483 26.8178 19.5606 26.4133 19.6222 25.0596C19.6794 23.8076 19.8888 23.1281 20.0647 22.6755C20.2976 22.0763 20.5766 21.6482 21.0263 21.1988C21.4761 20.7494 21.9044 20.4712 22.5041 20.2379C22.9571 20.0613 23.6374 19.8527 24.8903 19.7951C26.0757 19.7416 26.5351 19.7256 28.9301 19.7229L28.9301 19.7261ZM36.9423 21.8582C36.091 21.8582 35.4002 22.5476 35.4002 23.3986C35.4002 24.2493 36.091 24.9395 36.9423 24.9395C37.7936 24.9395 38.4843 24.2493 38.4843 23.3986C38.4843 22.5479 37.7936 21.8577 36.9423 21.8577L36.9423 21.8582ZM30.0829 23.6586C26.4385 23.6586 23.4837 26.6112 23.4837 30.2529C23.4837 33.8946 26.4385 36.8459 30.0829 36.8459C33.7273 36.8459 36.681 33.8946 36.681 30.2529C36.681 26.6112 33.727 23.6586 30.0826 23.6586H30.0829ZM30.0829 25.9727C32.4484 25.9727 34.3663 27.8889 34.3663 30.2529C34.3663 32.6167 32.4484 34.5332 30.0829 34.5332C27.7171 34.5332 25.7994 32.6167 25.7994 30.2529C25.7994 27.8889 27.7171 25.9727 30.0829 25.9727Z" fill="white"/>
</svg>
