<svg width="61" height="61" viewBox="0 0 61 61" fill="none" xmlns="http://www.w3.org/2000/svg">
<rect opacity="0.7" x="1" y="-1" width="58" height="58" rx="29" transform="matrix(1 0 0 -1 0.455078 58.9141)" stroke="#5932EE" stroke-width="2"/>
<path d="M21.6638 19.4648L18.5199 26.8011C18.4472 26.9711 18.4271 27.1591 18.4621 27.3406C18.497 27.5222 18.5856 27.6892 18.7163 27.82L33.5483 42.652C33.6791 42.7827 33.8461 42.8713 34.0277 42.9063C34.2093 42.9413 34.3972 42.9211 34.5672 42.8484L41.9035 39.7045C42.0427 39.6449 42.1651 39.5522 42.2601 39.4343C42.3551 39.3165 42.4198 39.1772 42.4485 39.0286C42.4772 38.88 42.4691 38.7266 42.4248 38.5818C42.3805 38.4371 42.3014 38.3054 42.1944 38.1983L38.1742 34.18C38.0366 34.0428 37.8594 33.9524 37.6676 33.9214C37.4757 33.8905 37.279 33.9207 37.1053 34.0077L33.3371 35.8918L25.4783 28.0312L27.3606 24.263C27.4476 24.0893 27.4778 23.8926 27.4469 23.7008C27.416 23.5089 27.3255 23.3317 27.1883 23.1941L23.1681 19.1739C23.061 19.0674 22.9295 18.9886 22.7849 18.9446C22.6404 18.9005 22.4873 18.8925 22.339 18.9211C22.1906 18.9498 22.0516 19.0144 21.9339 19.1091C21.8162 19.2039 21.7235 19.326 21.6638 19.4648Z" fill="white"/>
</svg>
