<svg width="107" height="28" viewBox="0 0 107 28" fill="none" xmlns="http://www.w3.org/2000/svg">
<g style="mix-blend-mode:luminosity">
<path d="M60.9135 9.58384C60.9135 6.46848 60.9672 3.56798 61.1283 0.882324L52.9102 2.44V3.19198L53.7159 3.29941C54.3068 3.35312 54.6828 3.56798 54.8976 3.89025C55.1125 4.26625 55.2736 4.80338 55.381 5.60907C55.4885 7.16675 55.5959 10.7118 55.5422 16.298C55.5422 21.8304 55.4885 25.3218 55.381 26.6646C58.3353 27.3091 60.6449 27.5777 62.3637 27.5777C65.5865 27.5777 68.111 26.6646 69.9373 24.7846C71.7635 22.9584 72.7304 20.3802 72.7304 17.2111C72.7304 14.6866 72.0321 12.5918 70.6355 10.9267C69.239 9.26156 67.4665 8.45586 65.3717 8.45586C63.9751 8.45586 62.5249 8.83185 60.9135 9.58384ZM61.0746 26.1275C60.9672 24.4086 60.8598 19.2522 60.8598 10.8192C61.3432 10.6581 61.9878 10.5507 62.7934 10.5507C64.0826 10.5507 65.1031 11.1952 65.8551 12.5381C66.6071 13.8809 66.9831 15.4923 66.9831 17.5334C66.9831 20.0579 66.5534 22.099 65.6939 23.8178C64.8345 25.4829 63.7603 26.3423 62.4175 26.3423C61.9877 26.2349 61.558 26.1812 61.0746 26.1275ZM22.079 1.41945H0.59375V2.49372L1.72172 2.60114C2.58113 2.76228 3.17198 3.08456 3.54797 3.56798C3.92396 4.10511 4.13881 4.96452 4.19252 6.1462C4.62223 11.9472 4.62223 17.3722 4.19252 22.3675C4.0851 23.5492 3.87025 24.4086 3.54797 24.9458C3.17198 25.4829 2.58113 25.8052 1.72172 25.9126L0.59375 26.0737V27.148H14.4517V26.0737L13.0015 25.9663C12.6476 25.9367 12.3033 25.8358 11.9895 25.6696C11.6756 25.5035 11.3987 25.2755 11.1752 24.9995C10.7992 24.4623 10.5844 23.6029 10.5307 22.4213C10.3695 20.2727 10.2621 17.8019 10.2621 15.0626L13.1626 15.1163C14.7203 15.17 15.7945 16.3517 16.3317 18.7151H17.4059V9.95983H16.3317C15.7945 12.2695 14.774 13.4512 13.1626 13.5049L10.2621 13.5586C10.2621 8.72443 10.3695 5.28679 10.5307 3.19198H14.774C17.7819 3.19198 19.823 5.12565 21.0047 8.99299L22.2938 8.617L22.079 1.41945ZM19.5545 17.9631C19.5545 20.7561 20.3601 23.0658 21.9178 24.8921C23.4755 26.7183 25.7852 27.5777 28.6857 27.5777C31.5862 27.5777 33.9495 26.6646 35.6684 24.7846C37.3872 22.9584 38.1929 20.6487 38.1929 17.8556C38.1929 15.0626 37.3872 12.7529 35.8295 10.9267C34.2718 9.10042 31.9622 8.24101 29.0617 8.24101C26.1612 8.24101 23.7978 9.15413 22.079 11.0341C20.3601 12.8603 19.5545 15.17 19.5545 17.9631ZM31.5325 11.8398C32.177 13.3975 32.4456 15.4386 32.4456 17.9094C32.4456 23.6029 31.2639 26.396 28.9542 26.396C27.7725 26.396 26.8594 25.5903 26.2149 23.9789C25.5703 22.3675 25.3017 20.3264 25.3017 17.9094C25.3017 12.2695 26.4834 9.47641 28.7931 9.47641C29.9748 9.4227 30.8879 10.2284 31.5325 11.8398ZM76.92 24.8921C78.6925 26.6646 80.9485 27.5777 83.6341 27.5777C85.2992 27.5777 86.7495 27.2554 88.0386 26.5572C89.3277 25.9126 90.3482 25.1069 91.0465 24.1401L90.5094 23.4955C89.3277 24.4086 87.9849 24.8383 86.4272 24.8383C84.2787 24.8383 82.6136 24.1401 81.4856 22.6898C80.3039 21.2396 79.7668 19.4133 79.8742 17.0499H91.3688C91.3688 14.4717 90.7242 12.3769 89.3814 10.7118C88.0386 9.10042 86.1586 8.29472 83.7415 8.29472C80.7336 8.29472 78.4239 9.26156 76.7588 11.1415C75.0937 13.0215 74.288 15.3311 74.288 18.0705C74.288 20.8636 75.1474 23.1195 76.92 24.8921ZM80.8947 11.4101C81.4856 10.121 82.2376 9.47641 83.2581 9.47641C84.8695 9.47641 85.6752 11.5175 85.6752 15.6534L79.9816 15.7608C80.0353 14.1494 80.3039 12.6992 80.8947 11.4101ZM105.818 9.26156C104.367 8.617 102.541 8.24101 100.339 8.24101C98.0829 8.24101 96.3104 8.83185 94.9676 9.95983C93.6247 11.0878 92.9265 12.4843 92.9265 14.1494C92.9265 15.5997 93.3562 16.7277 94.1619 17.5334C94.9676 18.3391 96.2567 19.0373 97.9218 19.6282C99.4257 20.1653 100.5 20.7024 101.037 21.1859C101.574 21.723 101.897 22.3138 101.897 23.1195C101.897 23.8715 101.628 24.5698 101.037 25.1069C100.5 25.6977 99.748 25.9663 98.7812 25.9663C96.4178 25.9663 94.6453 24.2475 93.4099 20.8099L92.4968 21.0784L92.7116 26.4497C94.6453 27.2017 96.7938 27.5777 99.1572 27.5777C101.628 27.5777 103.508 27.0406 104.904 25.9126C106.301 24.8383 106.999 23.2807 106.999 21.347C106.999 20.0579 106.677 18.9836 105.979 18.1779C105.28 17.3722 104.152 16.674 102.541 16.0294C100.769 15.3848 99.5332 14.794 98.8886 14.2569C98.244 13.7197 97.9218 13.0752 97.9218 12.2695C97.9218 11.4638 98.1366 10.8192 98.62 10.2821C99.1035 9.74498 99.6943 9.53012 100.446 9.53012C102.595 9.53012 104.152 11.0878 105.119 14.1494L106.032 13.8809L105.818 9.26156ZM54.1456 8.77814C53.3937 8.40215 52.588 8.24101 51.6748 8.24101C50.7617 8.24101 49.8486 8.617 48.8281 9.36898C47.8075 10.121 47.0555 11.1415 46.4647 12.5381L46.5184 8.24101L38.354 9.8524V10.6044L39.1597 10.6581C40.1803 10.7655 40.7711 11.5712 40.8785 13.0215C41.2008 16.3517 41.2008 19.8967 40.8785 23.6567C40.7711 25.1069 40.1803 25.8589 39.1597 26.02L38.354 26.1275V27.148H49.7412V26.1275L48.2909 26.02C47.2704 25.9126 46.6795 25.1069 46.5721 23.6567C46.2498 20.5413 46.1961 17.2111 46.4647 13.7735C46.787 13.2363 47.4852 12.914 48.5595 12.8066C49.6338 12.6992 50.8692 13.0215 52.1583 13.7735L54.1456 8.77814Z" fill="#676767"/>
</g>
</svg>
